<svg version="1.1" id="bttn-svg" xmlns="https://www.w3.org/2000/svg" xmlns:xlink="https://www.w3.org/1999/xlink" x="0px" y="0px"
	 viewBox="0 0 2652.9 511" style="enable-background:new 0 0 2652.9 511;" xml:space="preserve">
<path d="M216.9,377.5c-1.2-0.7-2.6-1.2-4-1.3c-1.7-0.3-3.5-0.4-5.2-0.4c-1,0-1.9,0-2.8,0.1c-0.9,0.1-1.7,0.1-2.4,0.2v16.8h4.1
	c4.5,0,8-0.6,10.3-1.9c2.3-1.2,3.5-3.5,3.5-6.9c0.1-1.4-0.3-2.8-0.9-4C218.9,379,218,378.1,216.9,377.5z"/>
<path d="M260,375.8c-0.9,0-1.8,0-2.8,0c-1,0-1.9,0.1-2.7,0.2v36.9c0.6,0.1,1.3,0.1,2.1,0.1c0.8,0,1.8,0,2.9,0c6.6,0,11.4-1.7,14.6-5
	c3.2-3.3,4.8-7.9,4.8-13.7c0-6.1-1.5-10.8-4.5-13.9C271.3,377.3,266.5,375.8,260,375.8z"/>
<path d="M401.6,321.9h-55.8V0h-246L0,108.6V511h345.8v-41.8h55.8l-40-70.7L401.6,321.9z M97.8,31.7v77.2H26.9L97.8,31.7z M325.8,491
	H20V128.9h97.8V20h208v301.9H132.4v107.3l40.4,40h152.9V491z M292.5,394.4c0.1,4.5-0.7,9-2.4,13.2c-1.5,3.6-3.8,6.8-6.7,9.3
	c-3.1,2.6-6.7,4.5-10.6,5.6c-4.5,1.3-9.3,1.9-14,1.9c-2.4,0-5.1-0.1-8.3-0.3c-3.1-0.2-6.2-0.6-9.3-1.2V366c3.1-0.6,6.3-1,9.5-1.1
	c3.3-0.2,6.1-0.3,8.5-0.3c4.6-0.1,9.2,0.5,13.6,1.7c3.8,1,7.4,2.8,10.5,5.3c3,2.5,5.3,5.7,6.7,9.3
	C291.8,385.1,292.6,389.7,292.5,394.4z M233.9,384.2c0,7-2.4,12.1-7.1,15.2c-4.7,3.1-11.5,4.7-20.2,4.7h-4.1v19.5h-13.1v-57.5
	c3-0.6,6-1,9.1-1.2c3.2-0.2,6-0.3,8.4-0.3c8.7,0,15.4,1.5,20,4.6C231.6,372.2,233.9,377.2,233.9,384.2z M180.1,416.9
	c0.1,2.2-0.7,4.3-2.4,5.8c-3.1,2.6-7.7,2.6-10.9,0c-3.2-3.2-3.2-8.3,0-11.5c0,0,0,0,0,0c3.1-2.6,7.7-2.6,10.9,0
	C179.3,412.6,180.2,414.7,180.1,416.9z M339.1,376.3h-25.9v12.2h23.1v11h-23.1v24.1H300v-58.4h39.1V376.3z"/>
<rect x="82.9" y="166.9" width="188.1" height="20"/>
<rect x="82.9" y="211.2" width="115.7" height="20"/>
<rect x="232.2" y="211.2" width="38.1" height="20"/>
<rect x="82.9" y="255.6" width="188.1" height="20"/>
<polygon points="337.1,0 337.1,20 2628.7,20 2628.7,402.7 2522.2,491 337.1,491 337.1,511 2532.2,511 2652.9,411 2652.9,0 "/>
<g>
	<path d="M558.3,277.9v41h-29.1V198h48.2c9.2,0,17.4,1.7,24.5,5.1c7.1,3.4,12.6,8.2,16.5,14.5c3.9,6.3,5.9,13.4,5.9,21.4
		c0,11.8-4.2,21.2-12.7,28.3c-8.4,7.1-20,10.6-34.7,10.6H558.3z M558.3,255.4h19.1c5.6,0,9.9-1.4,12.9-4.2c3-2.8,4.4-6.8,4.4-12
		c0-5.6-1.5-10.2-4.6-13.5c-3-3.4-7.2-5.1-12.5-5.1h-19.4V255.4z"/>
	<path d="M742.8,261c0,11.8-2.2,22.2-6.6,31.3c-4.4,9.1-10.6,16.1-18.6,21c-8.1,4.9-17.2,7.3-27.5,7.3s-19.4-2.4-27.4-7.1
		c-8-4.7-14.2-11.5-18.6-20.3c-4.5-8.8-6.8-18.9-7-30.3v-6.8c0-11.8,2.2-22.3,6.5-31.3c4.3-9,10.6-16,18.7-21
		c8.1-4.9,17.3-7.4,27.7-7.4c10.2,0,19.4,2.4,27.4,7.3c8,4.9,14.3,11.8,18.7,20.8c4.5,9,6.7,19.3,6.8,30.9V261z M713.2,255.9
		c0-12-2-21.1-6-27.4c-4-6.2-9.8-9.3-17.2-9.3c-14.6,0-22.3,11-23.2,32.9l-0.1,8.9c0,11.8,2,20.9,5.9,27.3c3.9,6.4,9.8,9.5,17.5,9.5
		c7.4,0,13-3.1,17-9.4c4-6.3,6-15.2,6.1-27V255.9z"/>
	<path d="M758.5,318.9V198h43.4c15.5,0,27.4,2.9,35.5,8.5c8.1,5.7,12.2,14,12.2,24.8c0,6.3-1.4,11.6-4.3,16
		c-2.9,4.4-7.1,7.7-12.7,9.8c6.3,1.7,11.2,4.8,14.5,9.3c3.4,4.5,5.1,10.1,5.1,16.6c0,11.8-3.7,20.7-11.2,26.7
		c-7.5,6-18.6,9-33.3,9.1H758.5z M787.7,248.4h15.2c6.4-0.1,10.9-1.2,13.6-3.5c2.7-2.3,4.1-5.6,4.1-10.1c0-5.1-1.5-8.8-4.4-11
		c-2.9-2.2-7.7-3.4-14.2-3.4h-14.3V248.4z M787.7,267.5v29h19.1c5.3,0,9.3-1.2,12.1-3.6c2.8-2.4,4.2-5.8,4.2-10.2
		c0-10.1-5-15.1-15-15.2H787.7z"/>
	<path d="M899.9,318.9h-29.1V198h29.1V318.9z"/>
	<path d="M995.8,267.6H950v28.9h54.1v22.4h-83.3V198h83.4v22.5H950V246h45.8V267.6z"/>
	<path d="M1061.5,276.2h-15.8v42.7h-29.1V198h47.6c14.3,0,25.5,3.2,33.6,9.5c8.1,6.4,12.1,15.3,12.1,26.9c0,8.4-1.7,15.4-5.1,20.9
		c-3.4,5.5-8.7,10-16,13.4l25.2,48.8v1.2h-31.2L1061.5,276.2z M1045.8,253.7h18.4c5.5,0,9.7-1.5,12.5-4.4c2.8-2.9,4.2-7,4.2-12.2
		c0-5.2-1.4-9.3-4.2-12.3c-2.8-3-7-4.5-12.5-4.5h-18.4V253.7z"/>
	<path d="M1160.9,296.5h57.8v22.4h-94.1v-15.4l57.6-83h-57.9V198h93.9V213L1160.9,296.5z"/>
	<path d="M1304.7,277.9v41h-29.1V198h48.2c9.2,0,17.4,1.7,24.5,5.1c7.1,3.4,12.6,8.2,16.5,14.5c3.9,6.3,5.9,13.4,5.9,21.4
		c0,11.8-4.2,21.2-12.7,28.3c-8.4,7.1-20,10.6-34.7,10.6H1304.7z M1304.7,255.4h19.1c5.6,0,9.9-1.4,12.9-4.2c3-2.8,4.4-6.8,4.4-12
		c0-5.6-1.5-10.2-4.6-13.5c-3-3.4-7.2-5.1-12.5-5.1h-19.4V255.4z"/>
	<path d="M1431.8,276.2H1416v42.7h-29.1V198h47.6c14.3,0,25.5,3.2,33.6,9.5c8.1,6.4,12.1,15.3,12.1,26.9c0,8.4-1.7,15.4-5.1,20.9
		c-3.4,5.5-8.7,10-16,13.4l25.2,48.8v1.2h-31.2L1431.8,276.2z M1416,253.7h18.4c5.5,0,9.7-1.5,12.5-4.4c2.8-2.9,4.2-7,4.2-12.2
		c0-5.2-1.4-9.3-4.2-12.3c-2.8-3-7-4.5-12.5-4.5H1416V253.7z"/>
	<path d="M1573.4,267.6h-45.8v28.9h54.1v22.4h-83.3V198h83.4v22.5h-54.3V246h45.8V267.6z"/>
	<path d="M1627,296.5h57.8v22.4h-94.1v-15.4l57.6-83h-57.9V198h93.9V213L1627,296.5z"/>
	<path d="M1773.6,267.6h-45.8v28.9h54.1v22.4h-83.3V198h83.4v22.5h-54.3V246h45.8V267.6z"/>
	<path d="M1895.4,318.9h-29l-42.8-75.2v75.2h-29.1V198h29.1l42.7,75.2V198h29.1V318.9z"/>
	<path d="M2007,220.5h-36.3v98.4h-29.1v-98.4H1906V198h101V220.5z"/>
	<path d="M2078.6,296.3h-39.9l-7,22.6h-31.1l44.3-120.9h27.4l44.7,120.9h-31.3L2078.6,296.3z M2045.7,273.8h26l-13-41.9
		L2045.7,273.8z"/>
	<path d="M2222.5,278c-0.4,8.4-2.7,15.8-6.8,22.3c-4.2,6.4-10,11.4-17.5,15c-7.5,3.5-16.1,5.3-25.7,5.3c-15.9,0-28.4-5.2-37.5-15.5
		c-9.1-10.3-13.7-25-13.7-43.8v-6c0-11.8,2.1-22.2,6.2-31.1c4.1-8.9,10.1-15.7,17.8-20.6c7.7-4.8,16.7-7.3,26.9-7.3
		c14.7,0,26.5,3.9,35.4,11.6c8.9,7.7,14,18.4,15.2,31.9h-29.1c-0.2-7.4-2.1-12.6-5.6-15.9c-3.5-3.2-8.8-4.8-15.9-4.8
		c-7.3,0-12.6,2.7-15.9,8.1c-3.4,5.4-5.1,14.1-5.3,26v8.5c0,12.9,1.6,22.1,4.9,27.6c3.2,5.5,8.8,8.3,16.7,8.3
		c6.7,0,11.8-1.6,15.4-4.7c3.5-3.2,5.4-8.2,5.6-15H2222.5z"/>
	<path d="M2285.1,198h29.1V281c0,7.7-1.8,14.6-5.4,20.6c-3.6,6-8.6,10.7-14.9,14c-6.4,3.3-13.5,5-21.4,5c-13.2,0-23.4-3.3-30.7-10
		s-11-16-11-28.2h29.2c0,5.5,1,9.5,2.9,12c1.9,2.5,5.1,3.7,9.6,3.7c4,0,7.2-1.5,9.3-4.5c2.2-3,3.3-7.2,3.3-12.7V198z"/>
	<path d="M2408.1,267.6h-45.8v28.9h54.1v22.4h-16.2c-4.3,2.2-7.4,4.2-9.3,6.2c-1.9,2-2.8,4.4-2.8,7.2c0,3.4,1.7,5.1,5,5.1
		c1.7,0,3.6-0.5,5.7-1.5l3.2,13.9c-4,2.4-8.6,3.7-13.8,3.7c-6.1,0-11-1.6-14.7-4.8c-3.7-3.2-5.5-7.5-5.5-12.9
		c0-6.9,2.8-12.5,8.3-16.9h-43.2V198h83.4v22.5h-54.3V246h45.8V267.6z"/>
</g>
</svg>